<svg id="Layer_1" xmlns="http://www.w3.org/2000/svg" viewBox="0 0 558.054 191.432"><style>.st0{fill:#c47c1f}.st1{fill:#014826}.st2{fill:none;stroke:#014826;stroke-miterlimit:10}</style><path class="st0" d="M70.73 16.304s-70.25 24.25-69.5 73 87.25 87.5 227 100.75c0 0-199.75-31.25-205.75-101.25-4.75-35.25 48.25-72.5 48.25-72.5z"/><path class="st1" d="M487.1 174.095s70.25-24.251 69.5-73.001S469.35 13.595 329.6.345c0 0 199.75 31.249 205.75 101.249 4.75 35.25-48.25 72.501-48.25 72.501zM83.167 33.429H65.98s-1.75 0-2.312 1.688l-1.875 4.562s-.938 4.25 2.25.5 2.438-2.937 3.188-3.75c.75-.812 3.375-1.062 4.125-.062l-3.438 16.25s-.125 2.312-2.125 2.5c-2 .187-2.812 0-2.812 0s-1.875 1.562.562 1.812h10.312s1.729-.208.333-1.666c0 0-3 .333-3.208-.834l4.562-17.937s1.688-2.063 4.688-.438c2.062 1.25 1.688 3.75 1.688 3.75s.562 2.938 1.875-1.062l.938-2.938c-.001 0 .561-2.375-1.564-2.375zM93.917 33.898h-6.406s-1.625.625-1.531 1.281c.094.656 1.406-.156 2.625.906l-3.656 17.812s-.938 1.406-1.469 1.375c-.531-.031-1.562-.188-1.625.531-.062.719.906.719.906.719h7.125s1.028-1.406-2.001-1.531c0 0-.561-.25-.249-1.469l2.062-6.906s.125-.813 1.438-.813h6.688s1.156-.031 1.156 1.156l-2.062 7.594s-.375.563-1.844.563-.719 1.406.375 1.406h5.906s2.094-.031 1.062-1.094c-1.031-1.062-1.406-1.531-1.406-1.531l3.875-16.375s.656-2 1.719-1.938c0 0 2.188-.781.688-1.688h-6.375s-2.344.219-.531 1.344c0 0 1.969.062 1.531 1.406l-1.781 5.969s-.188 1.094-1.188 1.125h-6.406s-1.812.094-1.656-1.531l.875-4.625s.062-2 1.406-2c1.343.001 2.218-1.686.749-1.686zM123.98 33.898h-12.531s-1.469.062-1.5 1c-.031.938 1.812.562 2.156 1.062l-2.875 16.688s-.062 1-1.156 1.531c0 0-2.188.906-2.188 1.563 0 .656.25.875.812.969h15.312l3.344-6.281s.469-.844 0-1.375-1.5.5-1.5.5-3.594 4.875-3.75 4.875h-6.75s-1.5-.094-1.312-2l1.469-5.031s.307-1.562 1.216-1.562h4.44s1.188-.281 1.219-.875c.031-.594-1.073-.885-1.073-.885h-4.729l1.396-6.562s1.646-2.896 5.041-1.584c0 0 1.292.979 1.896 1.813.604.833 2.208-2.146 2.229-2.417.021-.273-.208-1.335-1.166-1.429zM110.563 65.054s-23.167-2-26.583 13.584c0 0-.417 6.167 0 7.333.416 1.167.999 1.917 2.916 1.667s2.917-1.167 2.917-1.167 1.417-.417.917-3.917-1.084-12.583 11.166-13.333c0 0 2-.416 1.084 2 0 0-2.584 15.584-4 16-1.417.417-2.501 3.166-.834 3.833 0 0-1.666 8.751-2.416 10.667-.75 1.917-2.251 7.667-16.834 6.667 0 0-2.979.604-2.104 5.041.688 1.938 9.495.59 11.875.125 0 0 12.438-6.062 17.125-22.75 0 0 12.75-.562 13.375-.562s3.188-.563 2.938 1.312l-4.25 16.125s-3.75 9.468 4.688 6.765l11.375-2.953s3.375-2.188-1.375-2.75l-5.312.375s-2.312-.313-.938-5.938 8.125-37.187 9.938-38.75c1.126-1.331 2.236-2.658 4.5-3.187h5.125s2.5-2.813 2.5-4.531c0-1.719-6.625-.594-6.625-.594s-6.188 1.187-12.875 11.562c-1.991 3.29-4.036 11.354-4.438 15.438.125 1.437-1.25 2.875-2.312 3.125l-13.875.187s-2.375.438-1.062-3.375l3.562-14.562s2.25-.875 2.25-1.75-2.031-1.661-2.418-1.687z"/><path class="st1" d="M161.342 79.651c-5.499-3.508-14.794 1.229-20.762 10.579-5.967 9.352-6.347 19.776-.848 23.288 5.499 3.509 14.796-1.229 20.763-10.579 5.967-9.354 6.345-19.777.847-23.288zm-3.22 19.408c-2.395 7.425-7.722 12.354-11.898 11.008-4.176-1.348-5.621-8.459-3.226-15.886 2.396-7.426 7.722-12.354 11.898-11.008 4.177 1.348 5.621 8.459 3.226 15.886zM393.591 75.901c-5.498-3.508-14.794 1.229-20.762 10.579-5.967 9.352-6.347 19.776-.848 23.288 5.499 3.509 14.797-1.229 20.763-10.579 5.968-9.354 6.346-19.777.847-23.288zm-3.219 19.408c-2.395 7.425-7.723 12.354-11.898 11.008-4.176-1.348-5.621-8.459-3.227-15.886 2.397-7.426 7.723-12.354 11.898-11.008 4.178 1.348 5.622 8.459 3.227 15.886zM334.479 119.615c-4.878-1.248-11.772 1.439-15.332 8.273-3.564 6.837-2.449 15.233 2.433 16.482 4.879 1.249 12.588-1.31 16.15-8.145 3.561-6.837 1.63-15.361-3.251-16.61zm.918 12.568c-.945 5.028-5.52 8.661-9.051 8.533-3.536-.127-5.637-3.907-4.692-8.936.949-5.029 5.33-9.457 8.865-9.331 3.533.128 5.822 4.705 4.878 9.734zM191.98 55.755h-4.833s-2.063.142-3.527 1.264c0 0-6.14 4.535-8.473 8.785-2.334 4.25-9.834 33.583-10.417 38.25-.583 4.667-.25 5.917 0 7 .25 1.084 1.416 3.334 3.25 2.667 1.833-.667 11.583-6.833 13.333-8.333s.25-3.084-1.833-2.209-4.333 2.459-5.167 2.959c-.833.5-3.5.416-2.5-2.959l9.834-39.375s1.417-3.583 5.25-3.25c3.833.334 3.749 1.084 5.083.417 1.333-.667 2.083-2.75 2.083-2.75s.917-2.466-2.083-2.466zM211.311 55.755h-4.833s-2.063.142-3.527 1.264c0 0-6.14 4.535-8.473 8.785-2.333 4.25-9.834 33.583-10.417 38.25-.583 4.667-.25 5.917 0 7 .25 1.084 1.417 3.334 3.25 2.667 1.834-.667 11.584-6.833 13.334-8.333s.25-3.084-1.834-2.209c-2.083.875-4.333 2.459-5.166 2.959-.834.5-3.5.416-2.5-2.959l9.833-39.375s1.417-3.583 5.25-3.25c3.833.334 3.749 1.084 5.083.417s2.084-2.75 2.084-2.75.916-2.466-2.084-2.466zM219.23 62.846c-1.278-.183-4.708 2.375-4.958 4.167-.25 1.791.791 4.458 2.666 4.458s4.625-1.75 5-3.25-1.833-5.25-2.708-5.375z"/><path class="st1" d="M214.396 78.096s-9.083 5.209-9.916 5.875c-.833.667-1.958 2.292-.292 2.75 0 0 .209.655 3.959-1.922 1.416-.995 2.374.654 1.958 1.997-.417 1.342-5.125 17.592-5.125 17.592s-1.167 5.5.25 7.5c1.416 2 2.224 1.917 3.633 1.125 1.409-.792 11.325-6.5 12.284-7.375.959-.875 1.334-3.792-1.666-2.459l-5 2.792s-3.459 1.667-2.459-3.583 4.834-19.209 4.834-19.209 1.375-4.583.125-5.291c-1.251-.709-2.585.208-2.585.208z"/><path class="st1" d="M233.105 77.619l-9.875 5.185s-3.063 2.063-2.063 3.375c1 1.313 4.25-.687 4.75-1.062s3.125-.688 2.688 2.187c-.438 2.875-5.438 22.438-5.438 22.438s-.504 2.395-.229 2.687c1.042 1.106 5.747.229 6.667-3 2.515-8.832 3.483-15.565 3.875-17.5.239-1.178 9.75-6.625 9.75-6.625s4.062-2.125 2.812 2.063l-4.562 19.812s-1.625 6.875 2.5 6.063c4.125-.813 13.562-8.125 13.562-8.125s3.83-3.941-1.562-2.563c-1.753.448-4.313 2.688-4.313 2.688s-3.812 1.062-2.187-3.5c1.625-4.563 5.25-20.875 5.25-20.875s1.438-5.875-4.125-3.5l-12.188 6.687s-4.187 3.438-2-1.875c2.188-5.312-1.702-5.405-3.312-4.56z"/><path class="st1" d="M291.667 76.801h-12.875c-1.875.253-5.948 2.366-10.125 6.19-4.091 3.746-7.75 12.125-7.625 25 0 0 1 1.312 1.125 1.812s.125.75-.812 1.813c-.938 1.062-13.605 12.931-15.063 16.375-1.375 3.25-1.937 5.25 3.125 7.375 5.063 2.125 18.25.062 23.188-3.5 4.938-3.563 8.438-11.438 8.875-13 .438-1.563 7.312-34.068 7.312-34.068s0-2.557 2.875-3.37c0 0 1.75-1.062 1.938-2.062s1.437-2.565-1.938-2.565zm-13.687 29.128s-3.458 15.792-4.833 19.834c-1.375 4.041-6.458 5.794-6.458 5.794l-10.292-.002s-1.459.167-3.375-2.25c-1.917-2.417.375-4.666.375-4.666l22.042-19.667c3.735-3.334 2.541.957 2.541.957zm6.625-22.166c-2.5 1.875-2.666 3.75-2.666 3.75s-.375 2.166-1.125 6.166-3.209 5.917-3.834 6.5-5.792 3.792-6.083 4.084c-.292.291-1.375.291-2.5 0-1.125-.292-.792-3.5-.625-6.042.167-2.541 2.292-9.708 4.167-12.625 1.875-2.916 6.542-3.667 6.542-3.667h5.459c-.001 0 3.165-.041.665 1.834zM313.813 78.304c-.624-1.166-2.458-1.958-2.458-1.958s-2.333-1.583-7.25.979c-4.917 2.563-7.537 6.37-8.375 8.466-.806 2.016-.416 4.68-.291 6.43s2.958 3.833 5.958 5.542c0 0 3.291 2.583 3.458 3.458s.958 4.208-4.875 7.833c-3.667 2.459-6.458-3.166-6.458-3.166s-.042-4.208-1.042-4.667c-1-.458-4.917 1.083-5.667 3.583s.464 6.75 6.626 8.167c6.162 1.416 13.041-4.792 13.041-4.792s3.792-4.75 3.75-8.041c-.042-3.292-.25-4.649-1.25-5.616-1-.967-7.794-5.939-8-6.467-.287-.735-1.834-1.708.333-4.791 2.167-3.084 3.292-3.125 4.042-2.834.75.292 3.374 2.042 4.833 3.084 1.459 1.041 3.46-1.125 3.876-2.084.416-.959.373-1.959-.251-3.126z"/><path class="st1" d="M332.647 76.801c-11.386-.082-11.395-.191-12.917 0-1.517.19-2.438 0-3.583 3.003l-3.833 8.334s-1.459 2.104-.396 2.916l1.125 1s1 1.438 1.875-1.687l2.688-4.875s1.437-2.25 3.375-2.375h5.687s2.375-.063.938 1.812c0 0-8.563 10.313-9.313 16.063-.752 5.764-1.062 9.625 1.938 11.437 3 1.813 9.75-.75 16.062-8.187 0 0 2.546-2.413 1.938 1.437-.465 2.942-.125 9.063 9.5 5.5 11.812-4.372 22.312-23.062 23.625-29.812l.437-8.375s.375-2.875-2-2.625-5.625.437-6.5 2.687 1.25 4.5.375 12.125-8.062 20.063-15.625 20.563c-7.562.5 1-18 1-18l2.875-8.25s1.438-3.438-1.25-3.375c-2.687.062-4.25.125-5.25 1.75s-2.25 7.687-2.687 8.625c-.438.937-4.875 18.187-15.313 19.312-10.437 1.125 6.688-26.687 9.375-26.937 2.688-.25.938-4.071-.437-3.004-1.375 1.067-1.25.936-1.938.939-.688.002-1.771-.001-1.771-.001zM409.98 75.492l-9.938 5.375s-4.437 3.75.438 2.687l2.687-1.25s4.625-1.25 3 3.438l-5.75 22.5s-1.375 3.562 3.125 1.937 3.875-4.375 3.875-4.375 3.75-18.687 4.125-19.5c.375-.812 4-3.562 5.313-4.125 1.312-.562 2.625-.562 3.25-.062s1.937 1.437 3.125 1.125c1.187-.313 1.75-2.188 1.75-2.188s1.625-2.875 1.25-4.75-2-1.745-3.375-1.56c-1.375.185-6.75 3.31-8.063 4.373-1.312 1.062-1.625.562-1.437-.938.187-1.5 1.187-4.562-3.375-2.687zM439.43 68.939s-3.345 1.46-3.708 2.676c-.364 1.213-1.002 7.294-1.307 7.596-.302.306-.333 1.187-2.096 1.246-1.763.062-3.494.031-3.735.092-.243.06-3.708 1.154-2.493 2.674 0 0 .444.882 1.026.941.584.062 4.624 0 4.624 0s1.308-.273 1.004 1.551c-.304 1.822-4.438 18.411-4.438 18.411s-.881 5.622 3.251 6.534c4.132.913 14.829-7.93 15.071-8.325.243-.397 2.099-3.586-2.065-2.036-4.163 1.548-5.167 3.917-6.654 3.615-1.489-.304-2.674-2.342-1.185-9.573 1.062-5.165 1.379-7.715 2.553-9.659.883-1.46 7.109-1.125 8.085-1.277.97-.152 2.338-.941 2.549-1.943.214-1.005-.514-1.735-1.213-1.793-.699-.062-7.781.454-8.054-.245-.274-.699 1.457-8.906 1.457-8.906s.913-3.158-2.672-1.579zM478.396 51.721s-6.083-.084-7.333 0c-1.25.083-9.25 5.5-12 9.583-2.75 4.084-10.667 43.667-11.167 46.5-.5 2.834.166 2.683 1.5 2.8 1.334.117 4-.883 5-2.966 1-2.084 3.168-17.417 4.334-18.667 1.166-1.25 9.5-7.489 13.25-7.333s-4.5 22.916-4.5 22.916-1.5 4.683 2.083 6.05 15.583-9.133 15.583-9.133 4-4.333-2.166-2.417c-2.279.709-5.508 3.765-6.584 3.25-1.916-.916-.233-8.893 3.834-22.75 1.214-4.136-.917-5.666-.917-5.666s-1.334-1-5.167 1.416c0 0-10.917 7.25-12.75 6.75-1.833-.5 1.263-16.415 5.334-21.75 2.416-3.166 4.083-2.5 4.083-2.5l6.333-.083s1.583-.833 3-2.833-.417-3.152-1.75-3.167zM316.688 120.179s-6.833-.167-7.583 0-9.572 4.199-10.625 12.292c-.591 4.542-.542 9.292 2.375 10.875.831.451 3.458 1.083 5.792.875 3.908-.348 6.475-1.624 7.458-2.667 1.375-1.458-.417-1.916-1.542-1.416s-3.124 2.666-6.166 1.916-4.959-2.958-4.209-7.416c.75-4.459 1.02-7.955 6.959-11.584 3.75-2.291 6.084 1.584 6.125 2.084.041.5.208 2.25 1.208 2s2.167-1.417 2.167-5.125c0-1.542-1.959-1.834-1.959-1.834zM346.815 120.105h-4.75s-2.75 1.032 0 2.116c2.75 1.083 2.111 1.5 1.764 2.75-.348 1.25-3.023 14.75-4.268 15.75-1.245 1-2.387.274-2.495.5-.143.298-.648 1.75 1.166 1.75h5.686s2.371-1.096.417-1.625c-.771-.208-1.438-.271-1.562-.396s-.335-.271-.001-1.333c.334-1.063 1.646-8.958 2.667-9.417 1.02-.458 3.751 11.783 4.02 12.209.251.395.958 1 1.812-.021.854-1.021 7.521-11.5 8.479-11.688.959-.188-.589 6.832-1.645 11.334-.542 2.31 6.229 1.061 6.75.937.52-.125 1.604-1.916-.333-2 0 0-1.625-.583-1.625-1.708s2.833-14.001 3.833-15.792c1-1.792 2.417-1.625 2.417-1.625s1.667-1.648-.625-1.741h-4.042s-11.374 15.866-12.208 15.741c-.834-.125-3.195-14.263-4.125-15.125-.664-.616-.664-.616-1.332-.616zM388.147 121.846c-.417-1.042-1.958-2.875-3.75-2.875h-9.834s-2.583.375-3.083.917c-.5.541-1.167 1.791 1.083 2.25 2.25.458 1.125 1.5 1.042 2s-3.583 15.583-3.583 15.583-.547 1.143-2.834 1.792c-.587.166.905 1.291.905 1.291h7.631s2.256-.166 1.756-1.041-2.042-.167-2.792-1.542 1.036-7.417 1.036-7.417.423-.375 1.173.209c.75.583 2.417.626 3.125.583s4.667-.25 7-4.292c2.333-4.041 1.542-6.416 1.125-7.458zm-4.667 5.677c-1.875 4.688-6.125 4.406-6.719 4.239-.594-.168-.719-.739-.719-.739s1.25-8.781 3-9.125c.212-.038 2.969 0 2.969 0s3.344.937 1.469 5.625zM404.397 139.888s-1.761-.302-2.73-8.802l-.719-10.812s-.5-3.375-2.688-1.302l-14.062 20.364s-.25.656-1.094.812c-.844.156-.906 1.969-.906 1.969s6.865.469 7.188.125c.322-.344-.426-1.625-1.78-2.146 0 0 3.042-5.479 3.812-6.417h6.063s.916.188.895 1.5l.73 5.167s.436 2.521 2.353 2.458c1.917-.062 3.939-.771 4.209-1 .271-.229.416-1.624-1.271-1.916zm-7-8.792s-2.5.021-3.5 0c-1-.02-.354-1.667-.354-1.667l3.313-4.416c1.312-.667 1 2.916 1.125 4.458.125 1.542-.584 1.625-.584 1.625zM416.98 119.179h-4.5s-2 1.084 0 1.959 1.778.583 1.806 1.833c0 0-3.515 15.959-4.348 16.625-.833.667-2.417.292-2.625.75-.208.458-1.015 1.591.25 1.542 1.323-.052 7.75 0 7.75 0s.875-1.209-.375-1.459-2.209-.166-2.25-.666c-.041-.5 1.625-10.375 3.167-12 1.542-1.625 9.167 13.5 9.167 13.5s2 1.458 2.375-.792 4.125-17.209 4.583-18.042 1.708-1.833 2.125-1.916c.417-.084.458-1.126-.167-1.334h-5.75s-2.802-.219-.864 1.625c1.938 1.844 1.688 1.375 1.688 2.313 0 0-2.125 11.375-2.594 11.531-.469.156-8.219-11.812-8.719-13.062s.906-2.407-.719-2.407zM443.792 118.898h-6.156s-2.039.845-.375 1.812c1.344.781 1.186.105 1.156 1.656 0 0-2.945 15.156-4.004 16.312-1.059 1.156-1.746 1.406-2.996 1.438-1.25.031-.937 1.5 1.469 1.625s5.5 0 5.5 0 3.62-.333 1.906-1.469c-1.007-.667-1.844-.219-1.906-.938 0 0 2.438-16 3.781-17.469 1.344-1.469 1.75-1.625 2.438-1.656.687-.03.812-1.311-.813-1.311zM460.98 118.898h-12.969s-2.066-.087-1.781 1.312c.25 1.227 2.031 1.219 2.031 1.219s.812-.062.062 2.219c-.75 2.281-2.031 14.281-3.562 15.406-1.531 1.125-2.406 1.281-2.375 1.938.031.656.406.799 1.094.806.687.007 14.437 0 14.437 0s2.072.305 3.938-6.337c.781-2.781-1.531-1.656-2.281-.344-.75 1.312-2.906 4.187-3.375 4.187-.469 0-5.312.469-6.156-.219-.844-.688-.669-3.84 1.031-7.625.5-1.113 4.875-.781 4.875-.781s.969.125 1.094-.625-.125-.969-1.094-1c-.969-.031-3.531.219-4.094-.437-.563-.656.437-5.125 1.125-6.625.687-1.5 2.719-1.25 4.219-1.125s1.594 1.75 1.969 1.937c.375.188 2.037.469 2.847-1.406s-1.035-2.5-1.035-2.5zM478.23 117.867s-3.469-.25-4.281 0-5.5 3.031-5.75 5.75.156 3.312.156 3.312.342 1.207 4.818 5.563c2.151 2.093.65 3.875.65 3.875s-1.5 2.375-3.094 2.781c-1.594.406-2.969.344-3.813 0-.844-.344-1.552-.759-2.75-4.594-.312-1-2.312.844-2.375 3.188-.062 2.344 1.844 4.531 5.844 4.469s7.688-2.125 9.844-6.938c2.156-4.812-3.688-7.906-3.688-7.906s-2.75-.906-2.625-3.875 3.219-3.281 3.219-3.281 1.667-.449 3.406 2.656c.438.781 2.25-.625 2.313-2.156.063-1.532-.968-2.594-1.874-2.844z"/></svg>